HIERARCHY
ROOT Hips
{
	OFFSET 0.000000 0.000000 0.000000 
	CHANNELS 6 Xposition Yposition Zposition Yrotation Zrotation Xrotation 
	JOINT Lumbar
	{
		OFFSET 0.000000 0.000000 0.000000 
		CHANNELS 3 Zrotation Xrotation Yrotation
		JOINT Neck
		{
			OFFSET 0.000000 0.445665 0.000000 
			CHANNELS 3 Zrotation Xrotation Yrotation
			End Site
			{
				OFFSET 0.000000 0.227535 0.000000 
			}
		}
		JOINT RightShoulder
		{
			OFFSET 0.019635 0.377685 0.194865 
			CHANNELS 3 Zrotation Xrotation Yrotation
			JOINT RightElbow
			{
				OFFSET 0.000000 -0.243375 0.000000 
				CHANNELS 2 Zrotation Yrotation
				JOINT RightWrist
				{
					OFFSET 0.000000 -0.264825 0.000000 
					CHANNELS 2 Zrotation Xrotation
					End Site
					{
						OFFSET 0.006600 -0.176220 0.000990 
					}
				}
			}
		}
		JOINT LeftShoulder
		{
			OFFSET 0.019635 0.377685 -0.194865 
			CHANNELS 3 Zrotation Xrotation Yrotation
			JOINT LeftElbow
			{
				OFFSET 0.000000 -0.243375 0.000000 
				CHANNELS 2 Zrotation Yrotation
				JOINT LeftWrist
				{
					OFFSET 0.000000 -0.264825 0.000000 
					CHANNELS 2 Zrotation Xrotation
					End Site
					{
						OFFSET 0.006600 -0.176220 -0.000990 
					}
				}
			}
		}
	}
	JOINT RightHip
	{
		OFFSET 0.052140 -0.069960 0.075570 
		CHANNELS 3 Zrotation Xrotation Yrotation
		JOINT RightKnee
		{
			OFFSET 0.000000 -0.402270 0.000000 
			CHANNELS 1 Zrotation
			JOINT RightAnkle
			{
				OFFSET 0.000000 -0.404085 0.000000 
				CHANNELS 3 Zrotation Xrotation Yrotation
				End Site
				{
					OFFSET 0.204105 -0.089430 0.008415 
				}
			}
		}
	}
	JOINT LeftHip
	{
		OFFSET 0.052140 -0.069960 -0.075570 
		CHANNELS 3 Zrotation Xrotation Yrotation
		JOINT LeftKnee
		{
			OFFSET 0.000000 -0.402270 0.000000 
			CHANNELS 1 Zrotation
			JOINT LeftAnkle
			{
				OFFSET 0.000000 -0.404085 0.000000 
				CHANNELS 3 Zrotation Xrotation Yrotation
				End Site
				{
					OFFSET 0.204105 -0.089430 -0.008415 
				}
			}
		}
	}
}
MOTION
Frames: 30
Frame Time: 0.02
0.44577 -0.28536 0.15857 536.98354 -22.20119 -1.39572 15.39797 3.50925 -14.29568 -11.74723 9.33763 -0.83079 -6.54427 -14.26158 34.1831 101.93839 81.29887 -12.99202 -1.99407 60.08182 30.38328 -3.72004 55.87441 -62.98048 -15.76446 -1.26489 93.29442 -8.03811 -11.90644 -81.10704 -8.72809 -3.70513 -2.6803 95.88204 5.75298 5.82592 -80.84133 -10.57658 3.8169 2.84477
0.44561 -0.28519 0.15794 537.07 -22.12217 -1.20675 15.19998 3.55843 -14.22287 -11.71867 8.35599 -0.83079 -6.68675 -14.19439 33.78272 101.89458 81.31232 -12.21512 -2.32075 61.09555 30.05935 -5.02907 59.75032 -65.80217 -16.07959 -0.21893 93.16768 -8.12321 -11.81723 -81.09326 -8.67955 -3.682 -2.66511 95.65442 5.67994 5.94964 -80.70631 -10.56074 3.81229 2.84097
0.44557 -0.28507 0.15714 537.1786 -21.94632 -0.99287 14.95411 3.60116 -14.12092 -11.69638 7.06308 -0.83079 -6.85182 -14.11776 33.23148 101.8042 81.32895 -11.02728 -2.66992 62.52946 29.86569 -6.82917 63.83982 -70.35459 -16.00521 0.77736 92.91647 -8.1953 -11.71242 -81.04844 -8.61684 -3.65978 -2.65 95.30215 5.5708 6.05197 -80.53383 -10.54084 3.80644 2.83616
0.44548 -0.28492 0.15642 537.27602 -21.816 -0.79139 14.73304 3.64647 -14.03151 -11.67544 5.91028 -0.83079 -7.01025 -14.05433 32.75902 101.74088 81.34586 -10.05399 -3.02309 63.76008 29.64558 -8.4739 67.8047 -74.0587 -16.1376 1.7922 92.72395 -8.27012 -11.61336 -81.01729 -8.56109 -3.63742 -2.63503 95.00981 5.48103 6.16469 -80.38007 -10.5236 3.80117 2.83187
0.44537 -0.28479 0.15568 537.37895 -21.67832 -0.58454 14.50014 3.69403 -13.94007 -11.63756 4.76116 -0.83079 -7.16087 -13.95226 32.2331 101.65578 81.35572 -8.95537 -3.31955 65.03911 29.285 -9.8362 71.9484 -78.04076 -16.18005 2.8479 92.52058 -8.3591 -11.52021 -80.98735 -8.50228 -3.61357 -2.61908 94.7017 5.37871 6.27544 -80.2183 -10.50276 3.79557 2.82717
0.44532 -0.28464 0.15495 537.47527 -21.53317 -0.38371 14.27995 3.73506 -13.84815 -11.63579 3.53324 -0.83079 -7.32989 -13.92966 31.78758 101.60425 81.38107 -8.02246 -3.73724 66.31238 29.2469 -11.89713 75.74325 -81.81432 -16.27861 3.79731 92.31093 -8.41541 -11.41149 -80.94797 -8.44674 -3.59315 -2.60527 94.39775 5.29409 6.38464 -80.06492 -10.48844 3.79049 2.82315
0.4454 -0.28443 0.15427 537.54869 -21.39323 -0.20027 14.10903 3.75988 -13.75824 -11.73694 2.13972 -0.83079 -7.54799 -14.11796 31.58987 101.6507 81.44688 -7.65842 -4.49571 67.54536 30.09126 -15.82261 78.55688 -85.03565 -16.95663 4.46725 92.11502 -8.38204 -11.2567 -80.8876 -8.40454 -3.58234 -2.59764 94.13382 5.26588 6.49762 -79.94023 -10.49392 3.78667 2.82103
0.44554 -0.2842 0.15362 537.61434 -21.24904 -0.02482 13.9522 3.77816 -13.6702 -11.87341 0.68269 -0.83079 -7.78167 -14.38822 31.48167 101.73285 81.52839 -7.47515 -5.37262 68.74678 31.25207 -20.42096 80.99492 -87.92616 -17.65661 5.02777 91.91741 -8.3165 -11.08786 -80.81929 -8.36616 -3.57496 -2.59215 93.87916 5.257 6.60913 -79.82602 -10.506 3.78351 2.81968
0.44566 -0.284 0.15296 537.68305 -21.10531 0.15074 13.7869 3.79923 -13.58448 -11.99044 -0.73022 -0.83079 -8.00524 -14.62857 31.34113 101.80255 81.6037 -7.20264 -6.18781 69.9104 32.25262 -24.67906 83.57691 -90.65393 -18.11117 5.63434 91.72021 -8.26741 -10.92994 -80.75641 -8.32556 -3.56577 -2.58551 93.62158 5.24005 6.71939 -79.70946 -10.51454 3.78039 2.81817
0.44575 -0.28372 0.15226 537.75493 -20.96369 0.34212 13.62773 3.82106 -13.48435 -12.12154 -2.22079 -0.83079 -8.24427 -14.83918 31.16 101.85606 81.67526 -6.94326 -7.03841 71.30103 33.32599 -29.11263 86.28987 -94.68516 -19.48663 6.25696 91.51944 -8.21059 -10.75268 -80.68495 -8.28626 -3.55754 -2.57955 93.35346 5.21866 6.83708 -79.5814 -10.52515 3.77585 2.81587
0.44591 -0.2836 0.15166 537.81755 -20.8188 0.49825 13.46093 3.83959 -13.41498 -12.23219 -3.55765 -0.83079 -8.45226 -15.12934 31.08662 101.95075 81.75825 -6.70769 -7.84149 72.21546 34.32253 -33.31795 88.62586 -95.99868 -19.02907 6.81845 91.32826 -8.16183 -10.61215 -80.62965 -8.24565 -3.54826 -2.57278 93.112 5.21177 6.93911 -79.48028 -10.53314 3.77438 2.81537
0.44623 -0.28395 0.15132 537.86105 -20.65894 0.55916 13.25983 3.85278 -13.43109 -12.27272 -4.47808 -0.83079 -8.5899 -15.63608 31.29022 102.16425 81.86965 -6.47128 -8.4975 71.7355 35.01615 -36.86602 90.11503 -89.00577 -12.8397 7.25676 91.15659 -8.14831 -10.58025 -80.62309 -8.19802 -3.5342 -2.56247 92.93495 5.23866 6.99925 -79.45094 -10.53169 3.78181 2.82002
0.44662 -0.28446 0.15108 537.8947 -20.49773 0.58463 13.05265 3.8625 -13.47796 -12.29226 -5.23547 -0.83079 -8.69245 -16.21674 31.59941 102.4156 81.99196 -6.25854 -9.09877 70.78942 35.62252 -40.13407 91.22011 -79.42327 -4.91415 7.63419 90.99658 -8.14333 -10.58532 -80.63287 -8.14946 -3.51914 -2.5514 92.78628 5.2798 7.04354 -79.44856 -10.5275 3.79221 2.82639
0.44697 -0.28489 0.1508 537.92959 -20.34223 0.62618 12.85483 3.87241 -13.51041 -12.32475 -6.05067 -0.83079 -8.79781 -16.75269 31.86054 102.64072 82.10864 -6.05215 -9.71669 70.11455 36.27804 -43.43619 92.42935 -71.62479 1.75725 8.02707 90.83684 -8.1309 -10.57085 -80.63383 -8.10308 -3.50525 -2.5412 92.62984 5.31574 7.09457 -79.43405 -10.52499 3.80084 2.83175
0.44734 -0.28537 0.15051 537.97725 -20.16502 0.6679 12.62945 3.88793 -13.54526 -12.34438 -6.93774 -0.83079 -8.95746 -17.33918 32.12622 102.9051 82.22826 -5.78089 -10.3745 69.19702 36.90811 -47.15108 93.91188 -61.3435 10.32289 8.46687 90.65378 -8.13157 -10.56679 -80.64019 -8.04952 -3.48856 -2.5289 92.45216 5.34744 7.1477 -79.41935 -10.52091 3.81123 2.83813
0.44769 -0.28577 0.15027 537.99686 -20.03273 0.70055 12.46006 3.89107 -13.5818 -12.38498 -7.63464 -0.83079 -8.99767 -17.83597 32.40481 103.09634 82.34471 -5.6464 -10.9334 68.66346 37.5619 -49.93647 94.75259 -55.50853 15.44215 8.79693 90.52169 -8.10844 -10.55083 -80.63952 -8.01049 -3.47733 -2.52071 92.32516 5.39049 7.19246 -79.41133 -10.5193 3.81869 2.84278
0.44801 -0.28593 0.15017 537.93454 -20.02539 0.72006 12.445 3.86074 -13.62069 -12.49135 -7.85286 -0.83079 -8.69717 -18.07438 32.70651 103.07558 82.44753 -5.89901 -11.24208 69.40155 38.33913 -50.1697 93.79508 -63.59626 9.84981 8.82987 90.53155 -8.00889 -10.48599 -80.61374 -8.01306 -3.48206 -2.52463 92.33325 5.46685 7.2202 -79.41524 -10.52569 3.81705 2.84205
0.4483 -0.28601 0.15013 537.84555 -20.06322 0.7311 12.4867 3.81821 -13.65935 -12.6187 -7.88374 -0.83079 -8.2808 -18.21825 33.01485 102.98007 82.54909 -6.28536 -11.45021 70.52568 39.13505 -49.48284 92.22724 -76.08266 0.85478 8.75625 90.59169 -7.88684 -10.40922 -80.58071 -8.03004 -3.49219 -2.53261 92.39106 5.55307 7.23968 -79.42497 -10.53457 3.81241 2.83954
0.44858 -0.28611 0.15007 537.77348 -20.07997 0.74389 12.50353 3.78133 -13.69458 -12.73468 -7.99576 -0.83079 -7.93072 -18.40007 33.3107 102.91892 82.65004 -6.5989 -11.69817 71.40732 39.89648 -49.25041 91.0218 -85.86564 -6.05404 8.73842 90.62606 -7.78095 -10.34259 -80.55214 -8.03951 -3.49944 -2.53835 92.42454 5.63102 7.26146 -79.43184 -10.54192 3.80936 2.83797
0.44895 -0.28627 0.15 537.68125 -20.09895 0.7642 12.51642 3.7436 -13.7454 -12.85835 -8.11905 -0.83079 -7.52363 -18.60539 33.6494 102.85676 82.7482 -6.96172 -11.97116 72.54923 40.76381 -48.85941 89.45169 -98.44187 -15.10632 8.6891 90.67272 -7.65041 -10.25748 -80.51914 -8.05288 -3.50845 -2.54573 92.46583 5.72524 7.28874 -79.44024 -10.55071 3.80548 2.83593
0.44913 -0.2863 0.14996 537.62426 -20.12411 0.76743 12.55086 3.70513 -13.76382 -12.97045 -8.17645 -0.83079 -7.20604 -18.73873 33.90014 102.77933 82.86198 -7.25641 -12.1662 73.25499 41.41737 -48.57876 88.49127 -106.39158 -20.61894 8.67861 90.70612 -7.56561 -10.20734 -80.49353 -8.0617 -3.51509 -2.55067 92.50294 5.78801 7.30291 -79.44688 -10.5573 3.80254 2.83441
0.44878 -0.28601 0.15003 537.67603 -20.15459 0.72462 12.63302 3.66477 -13.68788 -13.05249 -8.09834 -0.83079 -7.18328 -18.69236 33.89578 102.67001 82.92464 -7.30135 -12.19295 72.58963 41.46452 -48.87088 89.45451 -99.50777 -14.70494 8.82139 90.68569 -7.61382 -10.2582 -80.48923 -8.05338 -3.51404 -2.54776 92.51043 5.759 7.28203 -79.44386 -10.55585 3.8032 2.83489
0.44824 -0.28561 0.15013 537.76342 -20.18982 0.66521 12.73474 3.62459 -13.57997 -13.12106 -7.96077 -0.83079 -7.25146 -18.57713 33.80378 102.5491 83.01601 -7.27695 -12.14076 71.48523 41.29813 -49.29921 91.0392 -87.99598 -5.2594 9.00364 90.65093 -7.70854 -10.34414 -80.49266 -8.04017 -3.51043 -2.5423 92.51282 5.69835 7.24848 -79.43932 -10.55236 3.80484 2.83593
0.4478 -0.28527 0.15023 537.8312 -20.2234 0.61427 12.82587 3.58624 -13.48994 -13.19116 -7.85127 -0.83079 -7.26512 -18.49582 33.75876 102.43868 83.16206 -7.30493 -12.11033 70.63496 41.23786 -49.63825 92.27958 -79.28102 2.00552 9.15484 90.62604 -7.78122 -10.41291 -80.49304 -8.02988 -3.50786 -2.53808 92.52142 5.65378 7.2214 -79.43763 -10.55072 3.80586 2.83664
0.44729 -0.28487 0.15028 537.91208 -20.25662 0.55936 12.92526 3.53957 -13.38631 -13.2809 -7.73205 -0.83079 -7.32918 -18.40049 33.68523 102.30401 83.0412 -7.25536 -12.1361 69.57816 41.14116 -50.0603 93.75241 -67.85745 11.52717 9.35708 90.5892 -7.85713 -10.48669 -80.4913 -8.01715 -3.5059 -2.53359 92.51586 5.60251 7.19101 -79.42725 -10.54529 3.80754 2.83759
0.44688 -0.28456 0.15045 537.97497 -20.29086 0.50859 13.01246 3.51021 -13.30277 -13.32681 -7.61973 -0.83079 -7.31289 -18.31886 33.64841 102.21759 83.4592 -7.34176 -12.02721 68.82872 41.06779 -50.35424 94.90581 -60.83432 17.30159 9.46449 90.57258 -7.9374 -10.55821 -80.4958 -8.00813 -3.5021 -2.52907 92.53731 5.5574 7.16459 -79.43429 -10.54721 3.8081 2.8382
0.4468 -0.28455 0.15094 537.97518 -20.32867 0.47598 13.05182 3.53043 -13.28806 -13.24983 -7.5556 -0.83079 -7.04018 -18.29554 33.74924 102.27188 85.56726 -7.88464 -11.56787 69.14696 41.12401 -50.25644 94.94852 -67.81785 11.26375 9.29407 90.6204 -8.0207 -10.61791 -80.51661 -8.01064 -3.49289 -2.52457 92.63989 5.5383 7.15241 -79.4919 -10.57032 3.80557 2.83791
0.44683 -0.28463 0.15155 537.95683 -20.36674 0.44767 13.07982 3.56775 -13.29366 -13.12983 -7.49814 -0.83079 -6.68647 -18.28822 33.88714 102.37487 88.18033 -8.5553 -10.97611 69.76454 41.20809 -50.02651 94.6646 -79.23835 1.45597 9.02813 90.68793 -8.10648 -10.67377 -80.54334 -8.01696 -3.48206 -2.5202 92.76873 5.52623 7.14457 -79.56677 -10.60084 3.80184 2.83725
0.44679 -0.28465 0.1521 537.95011 -20.40318 0.41564 13.1188 3.59609 -13.2863 -13.03312 -7.42969 -0.83079 -6.37829 -18.27166 33.99839 102.45256 90.42158 -9.12333 -10.44378 70.17312 41.27149 -49.86989 94.58501 -88.12415 -6.20716 8.81121 90.74268 -8.18964 -10.72932 -80.56667 -8.02138 -3.47259 -2.51608 92.88166 5.51005 7.13479 -79.63218 -10.62767 3.79851 2.83663
0.4468 -0.28472 0.15269 537.93173 -20.44617 0.39041 13.13357 3.62957 -13.29348 -12.92116 -7.39488 -0.83079 -6.03584 -18.26086 34.14832 102.54217 93.25343 -9.87237 -9.91073 70.8846 41.36335 -49.67792 94.29543 -99.01634 -15.54563 8.57378 90.81272 -8.28061 -10.79422 -80.593 -8.0263 -3.46043 -2.51057 93.01069 5.49654 7.12483 -79.7039 -10.6557 3.79583 2.83654
